<svg width="200" height="200" viewBox="0 0 200 200" fill="none" xmlns="http://www.w3.org/2000/svg">
  <!-- Latar belakang lingkaran -->
  <circle cx="100" cy="100" r="90" fill="#4F46E5" />
  
  <!-- Simbol piring/mangkuk -->
  <ellipse cx="100" cy="120" rx="60" ry="20" fill="white" />
  
  <!-- Simbol makanan/sendok -->
  <path d="M70 80C70 80 85 60 100 60C115 60 130 80 130 80L120 120H80L70 80Z" fill="white" />
  
  <!-- Uap makanan -->
  <path d="M90 50C90 50 85 40 90 30C95 20 105 25 105 25" stroke="white" stroke-width="4" stroke-linecap="round" />
  <path d="M110 50C110 50 115 35 125 30C135 25 140 35 140 35" stroke="white" stroke-width="4" stroke-linecap="round" />
  
  <!-- Teks "Kaluner" -->
  <path d="M50 150H55L65 165L75 150H80V180H75V160L65 175L55 160V180H50V150Z" fill="white" />
  <path d="M85 150H105V155H90V160H100V165H90V175H105V180H85V150Z" fill="white" />
  <path d="M110 150H115V175H130V180H110V150Z" fill="white" />
  <path d="M135 150H150V180H145V155H140V175H135V150Z" fill="white" />
</svg>
